{
	"asset":{
		"generator":"Khronos glTF Blender I/O v4.1.63",
		"version":"2.0"
	},
	"scene":0,
	"scenes":[
		{
			"name":"Scene",
			"nodes":[
				0,
				1
			]
		}
	],
	"nodes":[
		{
			"mesh":0,
			"name":"Buda_a",
			"rotation":[
				0.70710688829422,
				0,
				0,
				0.7071066498756409
			],
			"scale":[
				0.016324205324053764,
				0.016324205324053764,
				0.016324205324053764
			]
		},
		{
			"mesh":1,
			"name":"Buda_b",
			"rotation":[
				0.70710688829422,
				0,
				0,
				0.7071066498756409
			],
			"scale":[
				0.016324205324053764,
				0.016324205324053764,
				0.016324205324053764
			]
		}
	],
	"materials":[
		{
			"doubleSided":true,
			"name":"Buda_a",
			"normalTexture":{
				"index":0
			},
			"pbrMetallicRoughness":{
				"baseColorTexture":{
					"index":1
				},
				"metallicFactor":0,
				"roughnessFactor":0.5
			}
		},
		{
			"doubleSided":true,
			"name":"Buda_b",
			"normalTexture":{
				"index":2
			},
			"pbrMetallicRoughness":{
				"baseColorTexture":{
					"index":3
				},
				"metallicFactor":0,
				"roughnessFactor":0.5
			}
		}
	],
	"meshes":[
		{
			"name":"Buda_a",
			"primitives":[
				{
					"attributes":{
						"POSITION":0,
						"NORMAL":1,
						"TEXCOORD_0":2,
						"TANGENT":3
					},
					"indices":4,
					"material":0
				}
			]
		},
		{
			"name":"Buda_b",
			"primitives":[
				{
					"attributes":{
						"POSITION":5,
						"NORMAL":6,
						"TEXCOORD_0":7,
						"TANGENT":8
					},
					"indices":9,
					"material":1
				}
			]
		}
	],
	"textures":[
		{
			"sampler":0,
			"source":0
		},
		{
			"sampler":0,
			"source":1
		},
		{
			"sampler":0,
			"source":2
		},
		{
			"sampler":0,
			"source":3
		}
	],
	"images":[
		{
			"mimeType":"image/jpeg",
			"name":"Buda_a_Normal",
			"uri":"Buda_a_Normal.jpg"
		},
		{
			"mimeType":"image/jpeg",
			"name":"Buda_a_Base_Color",
			"uri":"Buda_a_Base_Color.jpg"
		},
		{
			"mimeType":"image/jpeg",
			"name":"Buda_b_Normal",
			"uri":"Buda_b_Normal.jpg"
		},
		{
			"mimeType":"image/jpeg",
			"name":"Buda_b_Base_Color",
			"uri":"Buda_b_Base_Color.jpg"
		}
	],
	"accessors":[
		{
			"bufferView":0,
			"componentType":5126,
			"count":2880,
			"max":[
				35.207298278808594,
				238.33949279785156,
				-0.3253999948501587
			],
			"min":[
				-364.09228515625,
				-266.4909973144531,
				-405.7532958984375
			],
			"type":"VEC3"
		},
		{
			"bufferView":1,
			"componentType":5126,
			"count":2880,
			"type":"VEC3"
		},
		{
			"bufferView":2,
			"componentType":5126,
			"count":2880,
			"type":"VEC2"
		},
		{
			"bufferView":3,
			"componentType":5126,
			"count":2880,
			"type":"VEC4"
		},
		{
			"bufferView":4,
			"componentType":5123,
			"count":14214,
			"type":"SCALAR"
		},
		{
			"bufferView":5,
			"componentType":5126,
			"count":2996,
			"max":[
				460.62139892578125,
				239.14540100097656,
				1.0151000022888184
			],
			"min":[
				18.565500259399414,
				-197.68820190429688,
				-365.099609375
			],
			"type":"VEC3"
		},
		{
			"bufferView":6,
			"componentType":5126,
			"count":2996,
			"type":"VEC3"
		},
		{
			"bufferView":7,
			"componentType":5126,
			"count":2996,
			"type":"VEC2"
		},
		{
			"bufferView":8,
			"componentType":5126,
			"count":2996,
			"type":"VEC4"
		},
		{
			"bufferView":9,
			"componentType":5123,
			"count":14802,
			"type":"SCALAR"
		}
	],
	"bufferViews":[
		{
			"buffer":0,
			"byteLength":34560,
			"byteOffset":0,
			"target":34962
		},
		{
			"buffer":0,
			"byteLength":34560,
			"byteOffset":34560,
			"target":34962
		},
		{
			"buffer":0,
			"byteLength":23040,
			"byteOffset":69120,
			"target":34962
		},
		{
			"buffer":0,
			"byteLength":46080,
			"byteOffset":92160,
			"target":34962
		},
		{
			"buffer":0,
			"byteLength":28428,
			"byteOffset":138240,
			"target":34963
		},
		{
			"buffer":0,
			"byteLength":35952,
			"byteOffset":166668,
			"target":34962
		},
		{
			"buffer":0,
			"byteLength":35952,
			"byteOffset":202620,
			"target":34962
		},
		{
			"buffer":0,
			"byteLength":23968,
			"byteOffset":238572,
			"target":34962
		},
		{
			"buffer":0,
			"byteLength":47936,
			"byteOffset":262540,
			"target":34962
		},
		{
			"buffer":0,
			"byteLength":29604,
			"byteOffset":310476,
			"target":34963
		}
	],
	"samplers":[
		{
			"magFilter":9729,
			"minFilter":9987
		}
	],
	"buffers":[
		{
			"byteLength":340080,
			"uri":"Buda_2.bin"
		}
	]
}
